<svg xmlns="http://www.w3.org/2000/svg" width="36" height="36" viewBox="0 0 36 36" fill="none">
  <path fill-rule="evenodd" clip-rule="evenodd" d="M13 10.5C13 11.8807 11.8807 13 10.5 13C9.11929 13 8 11.8807 8 10.5C8 9.11929 9.11929 8 10.5 8C11.8807 8 13 9.11929 13 10.5ZM13 18C13 19.3807 11.8807 20.5 10.5 20.5C9.11929 20.5 8 19.3807 8 18C8 16.6193 9.11929 15.5 10.5 15.5C11.8807 15.5 13 16.6193 13 18ZM10.5 28C11.8807 28 13 26.8807 13 25.5C13 24.1193 11.8807 23 10.5 23C9.11929 23 8 24.1193 8 25.5C8 26.8807 9.11929 28 10.5 28ZM20.5 10.5C20.5 11.8807 19.3807 13 18 13C16.6193 13 15.5 11.8807 15.5 10.5C15.5 9.11929 16.6193 8 18 8C19.3807 8 20.5 9.11929 20.5 10.5ZM18 20.5C19.3807 20.5 20.5 19.3807 20.5 18C20.5 16.6193 19.3807 15.5 18 15.5C16.6193 15.5 15.5 16.6193 15.5 18C15.5 19.3807 16.6193 20.5 18 20.5ZM20.5 25.5C20.5 26.8807 19.3807 28 18 28C16.6193 28 15.5 26.8807 15.5 25.5C15.5 24.1193 16.6193 23 18 23C19.3807 23 20.5 24.1193 20.5 25.5ZM25.5 13C26.8807 13 28 11.8807 28 10.5C28 9.11929 26.8807 8 25.5 8C24.1193 8 23 9.11929 23 10.5C23 11.8807 24.1193 13 25.5 13ZM28 18C28 19.3807 26.8807 20.5 25.5 20.5C24.1193 20.5 23 19.3807 23 18C23 16.6193 24.1193 15.5 25.5 15.5C26.8807 15.5 28 16.6193 28 18ZM25.5 28C26.8807 28 28 26.8807 28 25.5C28 24.1193 26.8807 23 25.5 23C24.1193 23 23 24.1193 23 25.5C23 26.8807 24.1193 28 25.5 28Z" fill="#171717"/>
</svg>
